# xmcd
#
# Track frame offsets: 
#        150
#        15265
#        35367
#        53380
#        76155
#        92155
#        104505
#        121075
#        141435
#        164237
#        183927
#        202157
#
# Disc length: 2862 seconds
#
# Revision: 5
# Processed by: cddbd v1.5.2PL0 Copyright (c) Steve Scherf et al.
# Submitted via: ExactAudioCopy v0.95b3
#
DISCID=990b2c0c
DTITLE=Various Artist - Three Decades Of Rock
DYEAR=1990
DGENRE=Oldies
TTITLE0=REO Speedwagon - Keep On Loving You
TTITLE1=John Waite - Missing You
TTITLE2=Babys - Everytime I Think Of You
TTITLE3=Blue Oyster Cult - Don't Fear The Reaper
TTITLE4=Quicksilver Messenger Service - Who Do You Love
TTITLE5=Grand Funk Railroad - The Loco-Motion
TTITLE6=Rush - New World Man
TTITLE7=UFO - Lights Out
TTITLE8=Aldo Nova - Fantasy
TTITLE9=Red Rider - Lunatic Fringe
TTITLE10=Triumph - Somebody's Out There
TTITLE11=Sammy Hagar - You Make Me Crazy
EXTD=YEAR: 1990
EXTT0=REO Speedwagon (1908 Fate Music Inc.)
EXTT1=John Waite (1984 Hudson Bay Music Co.)
EXTT2=The Babys (1979 Ensign Music Corp.)
EXTT3=Blue Oyster Cult (1976 B. O'Cult Songs)
EXTT4=QuickSilver (Arc Music Corp.)
EXTT5=Grand Funk (1974 Screen Gems-Columbia Music Inc.)
EXTT6=Rush (1982 Core Music Publishing)
EXTT7=UFO (1977 Chrysalis Music)
EXTT8=Aldo Nova (1981 ATV Music Corp.)
EXTT9=Red Rider (1981 Rumphyboobah Publ.)
EXTT10=Triumph (1968 Triumphsongs)
EXTT11=Sammy Hagar (1977 Warner-Tamerlane Publ. Corp.)
PLAYORDER=
